<svg width="150" height="150" viewBox="0 0 150 150" fill="none" xmlns="http://www.w3.org/2000/svg">
<path d="M75 150C55.1088 150 36.0322 142.098 21.967 128.033C7.90176 113.968 0 94.8912 0 75C0 55.1088 7.90176 36.0322 21.967 21.967C36.0322 7.90176 55.1088 0 75 0C94.8912 0 113.968 7.90176 128.033 21.967C142.098 36.0322 150 55.1088 150 75C150 94.8912 142.098 113.968 128.033 128.033C113.968 142.098 94.8912 150 75 150ZM60 112.5L127.5 48.75L116.25 37.5L60 90L33.75 63.75L22.5 75L60 112.5Z" fill="white"/>
</svg>
