<svg width="49" height="49" viewBox="0 0 49 49" fill="none" xmlns="http://www.w3.org/2000/svg">
<path d="M14.21 0H34.79C42.63 0 49 6.37 49 14.21V34.79C49 38.5587 47.5029 42.1731 44.838 44.838C42.1731 47.5029 38.5587 49 34.79 49H14.21C6.37 49 0 42.63 0 34.79V14.21C0 10.4413 1.49712 6.8269 4.16201 4.16201C6.8269 1.49712 10.4413 0 14.21 0ZM13.72 4.9C11.3808 4.9 9.13739 5.82925 7.48332 7.48332C5.82925 9.13739 4.9 11.3808 4.9 13.72V35.28C4.9 40.1555 8.8445 44.1 13.72 44.1H35.28C37.6192 44.1 39.8626 43.1708 41.5167 41.5167C43.1708 39.8626 44.1 37.6192 44.1 35.28V13.72C44.1 8.8445 40.1555 4.9 35.28 4.9H13.72ZM37.3625 8.575C38.1747 8.575 38.9537 8.89766 39.528 9.47199C40.1023 10.0463 40.425 10.8253 40.425 11.6375C40.425 12.4497 40.1023 13.2287 39.528 13.803C38.9537 14.3773 38.1747 14.7 37.3625 14.7C36.5503 14.7 35.7713 14.3773 35.197 13.803C34.6227 13.2287 34.3 12.4497 34.3 11.6375C34.3 10.8253 34.6227 10.0463 35.197 9.47199C35.7713 8.89766 36.5503 8.575 37.3625 8.575ZM24.5 12.25C27.7489 12.25 30.8647 13.5406 33.1621 15.8379C35.4594 18.1353 36.75 21.2511 36.75 24.5C36.75 27.7489 35.4594 30.8647 33.1621 33.1621C30.8647 35.4594 27.7489 36.75 24.5 36.75C21.2511 36.75 18.1353 35.4594 15.8379 33.1621C13.5406 30.8647 12.25 27.7489 12.25 24.5C12.25 21.2511 13.5406 18.1353 15.8379 15.8379C18.1353 13.5406 21.2511 12.25 24.5 12.25ZM24.5 17.15C22.5507 17.15 20.6812 17.9244 19.3028 19.3028C17.9244 20.6812 17.15 22.5507 17.15 24.5C17.15 26.4493 17.9244 28.3188 19.3028 29.6972C20.6812 31.0756 22.5507 31.85 24.5 31.85C26.4493 31.85 28.3188 31.0756 29.6972 29.6972C31.0756 28.3188 31.85 26.4493 31.85 24.5C31.85 22.5507 31.0756 20.6812 29.6972 19.3028C28.3188 17.9244 26.4493 17.15 24.5 17.15Z" fill="white"/>
</svg>
