<svg width="158" height="158" viewBox="0 0 158 158" fill="none" xmlns="http://www.w3.org/2000/svg">
<path d="M72.4167 131.667H42.7917C32.807 131.667 24.2771 128.21 17.2023 121.298C10.1274 114.385 6.58773 105.937 6.58334 95.9521C6.58334 87.3937 9.16182 79.768 14.3188 73.075C19.4757 66.3819 26.2236 62.1028 34.5625 60.2375C37.3056 50.143 42.7917 41.9687 51.0208 35.7146C59.25 29.4604 68.5764 26.3333 79 26.3333C91.8375 26.3333 102.729 30.8056 111.673 39.7501C120.618 48.6947 125.088 59.5835 125.083 72.4166C132.654 73.2944 138.937 76.5598 143.931 82.2126C148.926 87.8655 151.421 94.4752 151.417 102.042C151.417 110.271 148.538 117.267 142.779 123.029C137.021 128.792 130.025 131.671 121.792 131.667H85.5833V84.5958L96.1167 94.8L105.333 85.5833L79 59.25L52.6667 85.5833L61.8833 94.8L72.4167 84.5958V131.667Z" fill="#3FD1FF"/>
</svg>
