<svg width="100" height="100" viewBox="0 0 100 100" fill="none" xmlns="http://www.w3.org/2000/svg">
<g clip-path="url(#clip0_167_50)">
<path d="M50 8.33325C73.0125 8.33325 91.6667 26.9874 91.6667 49.9999C91.6667 73.0124 73.0125 91.6666 50 91.6666C26.9875 91.6666 8.33337 73.0124 8.33337 49.9999C8.33337 26.9874 26.9875 8.33325 50 8.33325ZM50 16.6666C41.1595 16.6666 32.681 20.1785 26.4298 26.4297C20.1786 32.6809 16.6667 41.1594 16.6667 49.9999C16.6667 58.8405 20.1786 67.3189 26.4298 73.5702C32.681 79.8214 41.1595 83.3333 50 83.3333C58.8406 83.3333 67.3191 79.8214 73.5703 73.5702C79.8215 67.3189 83.3334 58.8405 83.3334 49.9999C83.3334 41.1594 79.8215 32.6809 73.5703 26.4297C67.3191 20.1785 58.8406 16.6666 50 16.6666ZM50 62.4999C51.1051 62.4999 52.1649 62.9389 52.9463 63.7203C53.7277 64.5017 54.1667 65.5615 54.1667 66.6666C54.1667 67.7717 53.7277 68.8315 52.9463 69.6129C52.1649 70.3943 51.1051 70.8333 50 70.8333C48.895 70.8333 47.8352 70.3943 47.0538 69.6129C46.2724 68.8315 45.8334 67.7717 45.8334 66.6666C45.8334 65.5615 46.2724 64.5017 47.0538 63.7203C47.8352 62.9389 48.895 62.4999 50 62.4999ZM50 24.9999C51.1051 24.9999 52.1649 25.4389 52.9463 26.2203C53.7277 27.0017 54.1667 28.0615 54.1667 29.1666V54.1666C54.1667 55.2717 53.7277 56.3315 52.9463 57.1129C52.1649 57.8943 51.1051 58.3333 50 58.3333C48.895 58.3333 47.8352 57.8943 47.0538 57.1129C46.2724 56.3315 45.8334 55.2717 45.8334 54.1666V29.1666C45.8334 28.0615 46.2724 27.0017 47.0538 26.2203C47.8352 25.4389 48.895 24.9999 50 24.9999Z" fill="white"/>
</g>
<defs>
<clipPath id="clip0_167_50">
<rect width="100" height="100" fill="white"/>
</clipPath>
</defs>
</svg>
